<svg xmlns="http://www.w3.org/2000/svg" viewBox="0 0 96 96" width="96" height="96" fill="none">
  <!-- Container Squircle -->
  <rect x="8" y="8" width="80" height="80" rx="22" fill="#F1F8E9" stroke="#C5E1A5" stroke-width="2"/>

  <!-- Golden Farm Coin / Commodity Token -->
  <ellipse cx="36" cy="62" rx="12" ry="6" fill="#FFE082" stroke="#F57F17" stroke-width="2.5"/>
  <ellipse cx="36" cy="56" rx="12" ry="6" fill="#FFD54F" stroke="#F57F17" stroke-width="2.5"/>
  <path d="M24 56v6c0 3.3 5.4 6 12 6s12-2.7 12-6v-6" stroke="#F57F17" stroke-width="2.5"/>

  <!-- Growing Wheat Stalk -->
  <path d="M36 56V34" stroke="#2E7D32" stroke-width="2.5" stroke-linecap="round"/>
  <path d="M36 41c-3.5-1.5-5-4.8-3.5-7.5c2.8.7 4.2 3.5 3.5 7.5z" fill="#C8E6C9" stroke="#2E7D32" stroke-width="1.8"/>
  <path d="M36 37c3.5-1.5 5-4.8 3.5-7.5c-2.8.7-4.2 3.5-3.5 7.5z" fill="#81C784" stroke="#2E7D32" stroke-width="1.8"/>
  <path d="M36 47c-3.5-1.5-5-4.8-3.5-7.5c2.8.7 4.2 3.5 3.5 7.5z" fill="#81C784" stroke="#2E7D32" stroke-width="1.8"/>

  <!-- Upward Trend Line & Arrow -->
  <path d="M38 52l12-11l9 6l18-20" fill="none" stroke="#2E7D32" stroke-width="3.2" stroke-linecap="round" stroke-linejoin="round"/>
  <path d="M68 27h9v9" fill="none" stroke="#2E7D32" stroke-width="3.2" stroke-linecap="round" stroke-linejoin="round"/>
  <!-- Trend nodes -->
  <circle cx="50" cy="41" r="3.5" fill="#81C784" stroke="#1B5E20" stroke-width="2"/>
  <circle cx="59" cy="47" r="3.5" fill="#81C784" stroke="#1B5E20" stroke-width="2"/>
</svg>
